<svg xmlns="http://www.w3.org/2000/svg" viewBox="0 0 96 96" role="img" aria-label="Sony LIV icon">
  <rect width="96" height="96" rx="22" fill="#f8fafc"/>
  <rect x="18" y="18" width="60" height="60" rx="13" fill="#111827"/>
  <rect x="25" y="25" width="46" height="20" rx="4" fill="#ffffff"/>
  <path d="M30 40h9c2.5 0 4.1-1.2 4.1-3.2 0-2-1.5-3.2-4-3.2h-3.2c-1.2 0-1.8-.4-1.8-1.2 0-.8.7-1.2 1.9-1.2h6.2v-3.4h-7c-3.4 0-5.4 1.6-5.4 4.3 0 2.6 1.9 4.1 5.3 4.1h3.1c1.1 0 1.7.4 1.7 1.1 0 .8-.7 1.2-1.9 1.2h-8v1.5Z" fill="#111827"/>
  <path d="M29 54h7v12h-7V54Zm11 0h7v12h-7V54Zm11 0h7.5l3 7.4 3-7.4H72l-7 12h-7l-7-12Z" fill="#ffffff"/>
  <path d="M25 47h46" stroke="#e11d48" stroke-width="4" stroke-linecap="round"/>
</svg>
